<svg width="176" height="176" xmlns="http://www.w3.org/2000/svg" xmlns:xlink="http://www.w3.org/1999/xlink" overflow="hidden"><defs><clipPath id="clip0"><rect x="592" y="232" width="176" height="176"/></clipPath></defs><g clip-path="url(#clip0)" transform="translate(-592 -232)"><path d="M723.206 255.344C702.717 246.654 679.062 256.219 670.372 276.708 670.362 276.73 670.353 276.752 670.344 276.774 662.418 295.505 648.193 307.533 637.608 311.158 616.53 318.364 605.285 341.293 612.492 362.371 619.699 383.449 642.628 394.693 663.705 387.487 698.396 375.627 728.649 345.987 744.636 308.204 753.315 287.69 743.721 264.023 723.206 255.344ZM641.707 348.945C643.437 348.164 644.206 346.129 643.425 344.4 643.248 344.007 642.998 343.651 642.69 343.351 640.875 341.021 634.295 334.032 640.086 330.621 644.853 327.817 650.936 330.127 652.667 337.479 653.853 342.522 657.384 345.802 661.689 344.154 664.448 343.357 666.04 340.474 665.243 337.714 665.242 337.711 665.241 337.708 665.24 337.704 663.881 332.755 659.018 330.575 656.196 325.74 653.375 320.906 655.829 318.139 658.829 315.769L658.928 315.692C662.588 312.792 667.755 312.763 671.448 315.622 675.642 318.918 680.12 321.836 684.831 324.34 684.913 324.393 686.431 325.139 686.514 325.194 688.218 326.288 690.486 325.793 691.58 324.088 691.659 323.965 691.73 323.838 691.794 323.707 692.573 321.991 691.968 319.964 690.377 318.955 684.636 314.852 679.436 310.04 674.9 304.635 673.511 303.04 673.398 300.701 674.627 298.979L674.716 298.853C676.67 296.103 680.314 295.148 683.366 296.586 692.56 300.908 694.278 302.994 694.388 303.077L696.166 304.177C697.61 305.059 699.496 304.603 700.378 303.159 700.566 302.852 700.698 302.513 700.768 302.16 701.354 299.288 700.395 296.319 698.24 294.333 694.587 290.974 690.663 287.923 686.507 285.211 684.894 284.18 684.394 282.054 685.377 280.413 687.413 277.238 691.638 276.315 694.812 278.351 694.996 278.469 695.174 278.595 695.345 278.73 699.404 281.914 702.475 284.78 702.524 284.829 704.37 286.562 707.271 286.47 709.003 284.624 710.736 282.778 710.644 279.878 708.798 278.145 708.604 277.962 706.077 275.6 702.51 272.713 700.368 270.978 700.533 267.541 703.976 267.057 708.564 266.3 713.274 266.924 717.506 268.85 726.459 272.984 732.449 281.667 733.134 291.505 733.287 294.686 730.831 297.389 727.649 297.542 726.332 297.606 725.032 297.215 723.967 296.436 722.643 295.465 721.301 294.506 719.976 293.589 717.79 292.013 714.795 292.203 712.826 294.042 710.648 296.159 710.599 299.641 712.716 301.819 712.968 302.078 713.244 302.311 713.541 302.516 715.845 304.103 718.234 305.858 720.495 307.572 724.052 310.269 725.025 315.202 722.761 319.048L722.697 319.157C721.572 321.07 719.109 321.71 717.196 320.586 717.035 320.491 716.881 320.386 716.734 320.27 714.705 318.664 712.375 316.92 709.75 315.099 706.714 313.141 702.688 313.799 700.434 316.623 698.644 319.256 698.979 322.79 701.232 325.04 703.657 327.562 705.891 330.261 707.914 333.116 709.273 334.991 709.41 337.488 708.265 339.501 707.162 341.042 705.583 342.178 703.771 342.733 698.808 344.829 696.02 343.1 691.937 340.926L681.217 335.217C680.011 334.574 678.549 334.651 677.417 335.415 675.573 336.669 675.063 341.083 675.87 342.526 679.818 349.579 688.805 348.004 689.466 353.279 689.889 356.667 683.648 361.263 680.761 363.083 677.819 364.664 674.153 363.615 672.491 360.718 669.444 355.611 668.591 355.062 666.063 354.98 663.558 354.966 661.48 356.916 661.335 359.417 661.205 361.91 666.102 367.315 664.582 370.417 663.062 373.519 652.634 376.452 649.732 374.166 646.83 371.88 648.082 367.174 648.179 362.64 648.237 360.527 646.872 358.637 644.848 358.029 642.405 357.344 639.871 358.77 639.186 361.212 639.085 361.574 639.028 361.948 639.018 362.324L639.018 362.431C638.945 364.971 636.827 366.972 634.287 366.899 632.975 366.862 631.743 366.267 630.898 365.263 629.189 363.302 627.795 361.086 626.767 358.696 625.669 356.626 625.091 354.32 625.081 351.977 625.081 350.617 625.339 349.27 625.84 348.006 627.089 345.651 630.011 344.754 632.366 346.004 632.601 346.128 632.824 346.272 633.036 346.433 635.45 348.582 639.68 350.092 641.707 348.945Z" fill="#FFFFFF" fill-rule="nonzero" fill-opacity="1"/></g></svg>